<svg viewBox="0 0 24 24" xmlns="http://www.w3.org/2000/svg"
    xmlns:xlink="http://www.w3.org/1999/xlink" width="24.000000" height="24.000000" fill="none"
    customFrame="#000000">
    <path id="Vector"
        d="M11.5471 14.6907L7.49356 10.6622C7.45273 10.6214 7.41881 10.5752 7.39181 10.5237C7.36498 10.4722 7.35156 10.4176 7.35156 10.36C7.35156 10.2388 7.39123 10.1357 7.47056 10.0507C7.5499 9.96572 7.65315 9.92322 7.78031 9.92322L16.2193 9.92322C16.3465 9.92322 16.4497 9.96688 16.5291 10.0542C16.6084 10.1414 16.6481 10.2445 16.6481 10.3635C16.6481 10.3933 16.6005 10.4931 16.5053 10.663L12.4523 14.6907C12.3951 14.7481 12.3276 14.7943 12.2496 14.8295C12.1716 14.8648 12.0881 14.8825 11.9993 14.8825C11.9105 14.8825 11.8272 14.8648 11.7496 14.8295C11.6719 14.7943 11.6044 14.7481 11.5471 14.6907Z"
        fill-rule="nonzero" />
    <path id="Vector"
        d="M7.49356 10.6622L11.5471 14.6907C11.6044 14.7481 11.6719 14.7943 11.7496 14.8295C11.8272 14.8648 11.9105 14.8825 11.9993 14.8825C12.0881 14.8825 12.1716 14.8648 12.2496 14.8295C12.3276 14.7943 12.3951 14.7481 12.4523 14.6907L16.5053 10.663C16.6005 10.4931 16.6481 10.3933 16.6481 10.3635Q16.6481 10.2709 16.6161 10.1912Q16.5864 10.1172 16.5291 10.0542C16.4497 9.96688 16.3465 9.92322 16.2193 9.92322L7.78031 9.92322C7.65315 9.92322 7.5499 9.96572 7.47056 10.0507C7.39123 10.1357 7.35156 10.2388 7.35156 10.36C7.35156 10.4176 7.36498 10.4722 7.39181 10.5237C7.41881 10.5752 7.45273 10.6214 7.49356 10.6622ZM16.4651 10.6324L12.4171 14.6553Q12.4116 14.6608 12.406 14.6661Q12.3301 14.7383 12.229 14.7839Q12.1988 14.7976 12.1674 14.8074Q12.0873 14.8325 11.9993 14.8325Q11.9085 14.8325 11.8263 14.8058Q11.7978 14.7965 11.7703 14.784Q11.6709 14.7389 11.5957 14.6682Q11.5889 14.6619 11.5824 14.6554L7.52892 10.6269L7.52881 10.6268Q7.50558 10.6035 7.48563 10.5777Q7.45765 10.5416 7.4361 10.5005Q7.41785 10.4655 7.40924 10.4282Q7.40156 10.395 7.40156 10.36Q7.40156 10.265 7.4378 10.1869Q7.46341 10.1317 7.50711 10.0848Q7.54277 10.0466 7.58602 10.0215Q7.66914 9.97322 7.78031 9.97322L16.2193 9.97322Q16.3253 9.97322 16.4058 10.0185Q16.4534 10.0453 16.4921 10.0878Q16.5429 10.1437 16.5694 10.2095Q16.5981 10.2807 16.5981 10.3635Q16.5981 10.3948 16.4651 10.6324Z"
        fill-rule="evenodd" />
</svg>