<svg viewBox="0 0 24 24" xmlns="http://www.w3.org/2000/svg"
    xmlns:xlink="http://www.w3.org/1999/xlink" width="24.000000" height="24.000000" fill="none"
    customFrame="#000000">
    <rect id="arrow_drop_down_circle" width="24.000000" height="24.000000" x="0.000000" y="0.000000" />
    <path id="Vector"
        d="M11.6893 14.635C11.7813 14.7263 11.8851 14.772 12.0006 14.772C12.1163 14.772 12.2197 14.7263 12.3108 14.635L15.1028 11.8492C15.2355 11.7166 15.2638 11.5601 15.1876 11.3797C15.1114 11.1996 14.9795 11.1095 14.7918 11.1095L9.18334 11.1095C8.99567 11.1095 8.86792 11.1996 8.80009 11.3797C8.73225 11.5601 8.76467 11.7166 8.89734 11.8492L11.6893 14.635ZM12.0008 22.1497C10.6098 22.1497 9.297 21.8841 8.06234 21.3527C6.82784 20.8214 5.74959 20.0947 4.82759 19.1727C3.90559 18.2507 3.17892 17.1727 2.64759 15.9387C2.11625 14.7047 1.85059 13.3921 1.85059 12.001C1.85059 10.5933 2.11625 9.27214 2.64759 8.03748C3.17892 6.80298 3.90525 5.72881 4.82659 4.81498C5.74792 3.90098 6.82575 3.17748 8.06009 2.64448C9.29442 2.11131 10.6073 1.84473 11.9988 1.84473C13.4068 1.84473 14.7284 2.11114 15.9636 2.64398C17.1986 3.17681 18.2728 3.89989 19.1863 4.81323C20.1 5.72656 20.8233 6.80056 21.3561 8.03523C21.8891 9.26989 22.1556 10.5916 22.1556 12.0002C22.1556 13.3919 21.889 14.705 21.3558 15.9395C20.8228 17.174 20.0993 18.252 19.1853 19.1735C18.2715 20.095 17.1976 20.8214 15.9636 21.3527C14.7296 21.8841 13.4087 22.1497 12.0008 22.1497ZM12.0001 20.4465C14.3508 20.4465 16.3462 19.6236 17.9863 17.9777C19.6263 16.3317 20.4463 14.3392 20.4463 12.0002C20.4463 9.64956 19.6263 7.65414 17.9863 6.01398C16.3462 4.37398 14.3498 3.55398 11.9971 3.55398C9.66109 3.55398 7.66984 4.37398 6.02334 6.01398C4.377 7.65414 3.55384 9.65056 3.55384 12.0032C3.55384 14.3392 4.37675 16.3305 6.02259 17.977C7.66859 19.6233 9.66109 20.4465 12.0001 20.4465Z"
        fill="rgb(0,0,0)" fill-rule="nonzero" />
</svg>