<svg viewBox="0 0 257 257" xmlns="http://www.w3.org/2000/svg"
	xmlns:xlink="http://www.w3.org/1999/xlink" width="257.000000" height="257.000000" fill="none"
	customFrame="#000000">
	<path id="image"
		d="M127.949 257L257 257L257 128.5C257 57.531 199.468 0 128.499 0C57.5292 0 0 57.531 0 128.5C0 199.284 57.2365 256.67 127.949 256.972L127.949 257ZM129.949 255L255 255L255 128.5C255 122.258 254.551 116.081 253.654 109.971C253.311 107.639 252.903 105.316 252.43 103.004C251.586 98.8793 250.541 94.8176 249.295 90.8186C248.076 86.9061 246.664 83.0535 245.06 79.2609C243.705 76.0591 242.224 72.9238 240.616 69.8551C238.442 65.7064 236.035 61.6793 233.397 57.7739C231.313 54.6886 229.102 51.7062 226.764 48.8265C224.002 45.4245 221.064 42.1659 217.949 39.0509C214.842 35.9444 211.593 33.0136 208.201 30.2586C205.313 27.9126 202.321 25.6941 199.226 23.6029C195.312 20.9587 191.275 18.5476 187.117 16.3696C184.057 14.7669 180.931 13.2904 177.738 11.9401C173.937 10.3321 170.075 8.91756 166.152 7.69639C162.162 6.45412 158.11 5.412 153.995 4.57004C151.679 4.09609 149.354 3.68769 147.018 3.34485C140.911 2.44828 134.738 2 128.499 2C122.261 2 116.089 2.44812 109.983 3.34435C107.647 3.6873 105.32 4.09586 103.002 4.57005C98.8886 5.41183 94.8371 6.45369 90.848 7.69562C86.925 8.91696 83.0622 10.3318 79.2597 11.9401C76.0641 13.2917 72.9348 14.7699 69.8717 16.3745C65.7168 18.5512 61.6838 20.9607 57.7728 23.6029C54.6811 25.6916 51.6926 27.9075 48.8074 30.2505C45.412 33.0079 42.1595 35.9413 39.05 39.0508C35.9434 42.1575 33.0126 45.4069 30.2574 48.799C27.9117 51.6872 25.6933 54.6788 23.6024 57.7739C20.9626 61.6813 18.5552 65.7105 16.3802 69.8615C14.7732 72.9282 13.2931 76.0613 11.9399 79.2609C10.3321 83.0622 8.91769 86.9237 7.69666 90.8454C6.45424 94.8358 5.41201 98.8885 4.56998 103.004C4.0956 105.322 3.68689 107.65 3.34386 109.987C2.44795 116.093 2 122.263 2 128.5C2 134.746 2.44931 140.925 3.34794 147.039C3.68702 149.345 4.09007 151.643 4.55708 153.931C5.39642 158.043 6.43571 162.092 7.67498 166.08C8.88851 169.985 10.2938 173.83 11.8908 177.616C13.2344 180.801 14.7036 183.92 16.2986 186.973C18.4661 191.123 20.8658 195.151 23.4977 199.059C25.5664 202.13 27.7605 205.099 30.0801 207.967C32.8345 211.373 35.7658 214.636 38.874 217.755C41.9459 220.838 45.1584 223.749 48.5115 226.488C51.4073 228.853 54.4081 231.09 57.5137 233.199C61.3853 235.828 65.3776 238.228 69.4905 240.4C72.5628 242.023 75.7025 243.518 78.9094 244.885C82.6985 246.501 86.5482 247.924 90.4584 249.155C94.4287 250.405 98.4615 251.457 102.557 252.31C104.904 252.799 107.261 253.221 109.628 253.575C115.672 254.48 121.782 254.946 127.957 254.972L129.949 254.98L129.949 255Z"
		fill-rule="evenodd" />
</svg>