<svg viewBox="0 0 190.696 197" xmlns="http://www.w3.org/2000/svg"
    xmlns:xlink="http://www.w3.org/1999/xlink" width="190.695923" height="196.999512" fill="none"
    customFrame="#000000">
    <g id="Group 2608836">
        <path id="image"
            d="M80.8472 166.457L162.391 166.457L162.391 83.2287C162.391 37.2625 126.039 0 81.1949 0C36.3511 0 -0.00012207 37.2625 -0.00012207 83.2287C-0.00012207 129.075 36.1661 166.244 80.8472 166.439L80.8472 166.457ZM82.8472 164.457L160.391 164.457L160.391 83.2287C160.391 79.0077 160.08 74.8337 159.457 70.7067C159.262 69.4154 159.036 68.1288 158.781 66.8467C158.175 63.8129 157.404 60.8319 156.468 57.9037C155.787 55.7729 155.018 53.67 154.162 51.5951C153.098 49.0156 151.908 46.5035 150.593 44.0587C149.443 41.9193 148.197 39.8315 146.855 37.7952C145.176 35.2487 143.367 32.8112 141.426 30.483C140.074 28.8602 138.658 27.2904 137.178 25.7737C134.77 23.305 132.224 21.0092 129.542 18.8865C128.213 17.8346 126.85 16.8252 125.454 15.8583C122.554 13.85 119.547 12.0514 116.433 10.4624C114.98 9.72111 113.504 9.02547 112.005 8.37546C109.285 7.19609 106.515 6.17894 103.696 5.32402C101.542 4.67072 99.3598 4.11215 97.1484 3.64831C95.527 3.30822 93.898 3.02076 92.2615 2.78593C88.6102 2.26198 84.9214 2 81.1949 2C77.4682 2 73.779 2.26202 70.1275 2.78605C68.4913 3.02086 66.8626 3.30828 65.2416 3.64831C63.0293 4.11234 60.8457 4.67117 58.691 5.32481C55.8732 6.17957 53.1047 7.19645 50.3853 8.37545C48.885 9.02591 47.408 9.72205 45.9543 10.4639C42.8414 12.0525 39.8353 13.8506 36.9362 15.8583C35.5416 16.8241 34.1806 17.8322 32.8531 18.8827C30.1692 21.0065 27.6224 23.3035 25.2126 25.7736C23.7325 27.2907 22.3162 28.8609 20.9635 30.4841C19.0235 32.812 17.2145 35.2491 15.5364 37.7952C14.1921 39.8348 12.944 41.9261 11.7921 44.0691C10.4797 46.5107 9.29205 49.0193 8.22924 51.5951C7.37219 53.6721 6.60282 55.7772 5.92112 57.9104C4.98602 60.8364 4.2159 63.8152 3.61074 66.8467C3.35431 68.1312 3.1285 69.4204 2.9333 70.7142C2.31102 74.8388 1.99988 79.0102 1.99988 83.2287C1.99988 87.4549 2.31221 91.6339 2.93688 95.7656C3.1292 97.0377 3.35112 98.3053 3.60265 99.5684C4.20604 102.598 4.9743 105.576 5.90743 108.501C6.58435 110.623 7.34804 112.717 8.19849 114.783C9.25505 117.35 10.4356 119.851 11.7403 122.285C12.8878 124.426 14.1313 126.516 15.4707 128.554C17.1371 131.09 18.9334 133.518 20.8596 135.838C22.21 137.465 23.6242 139.038 25.1023 140.559C27.4997 143.025 30.0337 145.32 32.7042 147.443C34.0272 148.495 35.3838 149.504 36.7739 150.472C39.6616 152.482 42.6563 154.283 45.758 155.877C47.2041 156.619 48.6734 157.317 50.166 157.97C52.8818 159.157 55.6472 160.182 58.4622 161.045C60.6004 161.701 62.7673 162.263 64.9627 162.732C66.6029 163.082 68.251 163.379 69.907 163.621C73.5191 164.15 77.1688 164.423 80.856 164.439L82.8472 164.448L82.8472 164.457Z"
            fill="rgb(219.505,189.807,206.777)" fill-rule="evenodd" />
        <path id="image"
            d="M141.321 197L190.696 197L190.696 146.604C190.696 118.772 168.684 96.209 141.531 96.209C114.378 96.209 92.3671 118.772 92.3671 146.604C92.3671 174.365 114.266 196.87 141.321 196.989L141.321 197ZM143.321 195L188.696 195L188.696 146.604C188.696 144.074 188.508 141.573 188.133 139.1C188.018 138.343 187.886 137.59 187.736 136.839C187.374 135.028 186.914 133.248 186.355 131.5C185.949 130.234 185.492 128.984 184.984 127.751C184.349 126.213 183.64 124.715 182.856 123.258C182.171 121.984 181.429 120.741 180.629 119.528C179.627 118.008 178.546 116.552 177.387 115.162C176.584 114.199 175.743 113.267 174.864 112.366C173.423 110.888 171.898 109.514 170.292 108.245C169.508 107.625 168.704 107.03 167.881 106.46C166.146 105.259 164.348 104.183 162.484 103.234C161.627 102.798 160.757 102.388 159.873 102.004C158.25 101.301 156.597 100.694 154.915 100.184C153.637 99.7968 152.341 99.4655 151.029 99.1902C150.074 98.9899 149.115 98.8203 148.151 98.6813C145.967 98.3664 143.76 98.209 141.531 98.209C139.302 98.209 137.095 98.3664 134.911 98.6814C133.947 98.8203 132.988 98.99 132.033 99.1902C130.719 99.4658 129.423 99.7975 128.143 100.185C126.463 100.695 124.811 101.301 123.189 102.004C122.305 102.388 121.435 102.798 120.578 103.234C118.715 104.183 116.916 105.259 115.181 106.46C114.359 107.03 113.556 107.624 112.772 108.243C111.165 109.513 109.641 110.887 108.198 112.366C107.319 113.267 106.478 114.199 105.674 115.163C104.516 116.553 103.435 118.008 102.433 119.528C101.633 120.742 100.89 121.987 100.204 123.263C99.4215 124.719 98.7132 126.215 98.0793 127.751C97.5698 128.986 97.1123 130.237 96.7068 131.505C96.1483 133.252 95.6884 135.03 95.3272 136.839C95.1771 137.591 95.0447 138.345 94.9298 139.102C94.5546 141.575 94.3671 144.075 94.3671 146.604C94.3671 149.137 94.5552 151.641 94.9314 154.116C95.0447 154.861 95.175 155.604 95.3224 156.344C95.6827 158.154 96.1417 159.932 96.6994 161.678C97.1019 162.939 97.5557 164.183 98.061 165.41C98.6913 166.942 99.3956 168.434 100.174 169.886C100.857 171.16 101.597 172.403 102.394 173.616C103.388 175.128 104.459 176.575 105.607 177.958C106.411 178.926 107.253 179.863 108.132 180.768C109.563 182.24 111.075 183.609 112.668 184.875C113.454 185.499 114.259 186.098 115.085 186.673C116.807 187.872 118.593 188.946 120.444 189.896C121.302 190.336 122.173 190.75 123.059 191.137C124.679 191.845 126.328 192.457 128.007 192.971C129.277 193.36 130.564 193.694 131.867 193.972C132.834 194.179 133.806 194.354 134.782 194.498C136.942 194.815 139.124 194.979 141.329 194.989L143.321 194.997L143.321 195Z"
            fill="rgb(169,213,223)" fill-rule="evenodd" />
    </g>
</svg>