<svg xmlns="http://www.w3.org/2000/svg" xmlns:xlink="http://www.w3.org/1999/xlink"><defs/><symbol id="arrow-down-outline" viewBox="0 0 24 24">
    <rect id="arrow_drop_down_circle" width="24.000000" height="24.000000" x="0.000000" y="0.000000"/>
    <path id="Vector" d="M11.6893 14.635C11.7813 14.7263 11.8851 14.772 12.0006 14.772C12.1163 14.772 12.2197 14.7263 12.3108 14.635L15.1028 11.8492C15.2355 11.7166 15.2638 11.5601 15.1876 11.3797C15.1114 11.1996 14.9795 11.1095 14.7918 11.1095L9.18334 11.1095C8.99567 11.1095 8.86792 11.1996 8.80009 11.3797C8.73225 11.5601 8.76467 11.7166 8.89734 11.8492L11.6893 14.635ZM12.0008 22.1497C10.6098 22.1497 9.297 21.8841 8.06234 21.3527C6.82784 20.8214 5.74959 20.0947 4.82759 19.1727C3.90559 18.2507 3.17892 17.1727 2.64759 15.9387C2.11625 14.7047 1.85059 13.3921 1.85059 12.001C1.85059 10.5933 2.11625 9.27214 2.64759 8.03748C3.17892 6.80298 3.90525 5.72881 4.82659 4.81498C5.74792 3.90098 6.82575 3.17748 8.06009 2.64448C9.29442 2.11131 10.6073 1.84473 11.9988 1.84473C13.4068 1.84473 14.7284 2.11114 15.9636 2.64398C17.1986 3.17681 18.2728 3.89989 19.1863 4.81323C20.1 5.72656 20.8233 6.80056 21.3561 8.03523C21.8891 9.26989 22.1556 10.5916 22.1556 12.0002C22.1556 13.3919 21.889 14.705 21.3558 15.9395C20.8228 17.174 20.0993 18.252 19.1853 19.1735C18.2715 20.095 17.1976 20.8214 15.9636 21.3527C14.7296 21.8841 13.4087 22.1497 12.0008 22.1497ZM12.0001 20.4465C14.3508 20.4465 16.3462 19.6236 17.9863 17.9777C19.6263 16.3317 20.4463 14.3392 20.4463 12.0002C20.4463 9.64956 19.6263 7.65414 17.9863 6.01398C16.3462 4.37398 14.3498 3.55398 11.9971 3.55398C9.66109 3.55398 7.66984 4.37398 6.02334 6.01398C4.377 7.65414 3.55384 9.65056 3.55384 12.0032C3.55384 14.3392 4.37675 16.3305 6.02259 17.977C7.66859 19.6233 9.66109 20.4465 12.0001 20.4465Z" fill-rule="nonzero"/>
</symbol><symbol id="arrow-drop-down" viewBox="0 0 24 24">
    <path id="Vector" d="M11.5471 14.6907L7.49356 10.6622C7.45273 10.6214 7.41881 10.5752 7.39181 10.5237C7.36498 10.4722 7.35156 10.4176 7.35156 10.36C7.35156 10.2388 7.39123 10.1357 7.47056 10.0507C7.5499 9.96572 7.65315 9.92322 7.78031 9.92322L16.2193 9.92322C16.3465 9.92322 16.4497 9.96688 16.5291 10.0542C16.6084 10.1414 16.6481 10.2445 16.6481 10.3635C16.6481 10.3933 16.6005 10.4931 16.5053 10.663L12.4523 14.6907C12.3951 14.7481 12.3276 14.7943 12.2496 14.8295C12.1716 14.8648 12.0881 14.8825 11.9993 14.8825C11.9105 14.8825 11.8272 14.8648 11.7496 14.8295C11.6719 14.7943 11.6044 14.7481 11.5471 14.6907Z" fill-rule="nonzero"/>
    <path id="Vector" d="M7.49356 10.6622L11.5471 14.6907C11.6044 14.7481 11.6719 14.7943 11.7496 14.8295C11.8272 14.8648 11.9105 14.8825 11.9993 14.8825C12.0881 14.8825 12.1716 14.8648 12.2496 14.8295C12.3276 14.7943 12.3951 14.7481 12.4523 14.6907L16.5053 10.663C16.6005 10.4931 16.6481 10.3933 16.6481 10.3635Q16.6481 10.2709 16.6161 10.1912Q16.5864 10.1172 16.5291 10.0542C16.4497 9.96688 16.3465 9.92322 16.2193 9.92322L7.78031 9.92322C7.65315 9.92322 7.5499 9.96572 7.47056 10.0507C7.39123 10.1357 7.35156 10.2388 7.35156 10.36C7.35156 10.4176 7.36498 10.4722 7.39181 10.5237C7.41881 10.5752 7.45273 10.6214 7.49356 10.6622ZM16.4651 10.6324L12.4171 14.6553Q12.4116 14.6608 12.406 14.6661Q12.3301 14.7383 12.229 14.7839Q12.1988 14.7976 12.1674 14.8074Q12.0873 14.8325 11.9993 14.8325Q11.9085 14.8325 11.8263 14.8058Q11.7978 14.7965 11.7703 14.784Q11.6709 14.7389 11.5957 14.6682Q11.5889 14.6619 11.5824 14.6554L7.52892 10.6269L7.52881 10.6268Q7.50558 10.6035 7.48563 10.5777Q7.45765 10.5416 7.4361 10.5005Q7.41785 10.4655 7.40924 10.4282Q7.40156 10.395 7.40156 10.36Q7.40156 10.265 7.4378 10.1869Q7.46341 10.1317 7.50711 10.0848Q7.54277 10.0466 7.58602 10.0215Q7.66914 9.97322 7.78031 9.97322L16.2193 9.97322Q16.3253 9.97322 16.4058 10.0185Q16.4534 10.0453 16.4921 10.0878Q16.5429 10.1437 16.5694 10.2095Q16.5981 10.2807 16.5981 10.3635Q16.5981 10.3948 16.4651 10.6324Z" fill-rule="evenodd"/>
</symbol><symbol id="ellipse" viewBox="0 0 5648 5648">
    <circle id="Ellipse 1755" cx="2824" cy="2824" r="2824"/>
</symbol><symbol id="flag" viewBox="0 0 88.0002 87.9961">
    <g id="Group">
        <path id="Vector" d="M0 0L85.9962 0" stroke-linecap="round" stroke-linejoin="round" stroke-width="2" transform="matrix(0,1,-1,0,1,1)"/>
        <path id="Vector" d="M1 6.73315L46.8646 6.73315C48.3851 6.73315 49.8434 7.33717 50.9185 8.41233C51.9937 9.48749 52.5977 10.9457 52.5977 12.4662L52.5977 58.3309L1 58.3309" fill-rule="nonzero" stroke-linecap="round" stroke-linejoin="round" stroke-width="2"/>
        <path id="Vector" d="M35.3984 75.53L52.5977 58.3308" fill-rule="nonzero" stroke-linecap="round" stroke-linejoin="round" stroke-width="2"/>
        <path id="Vector" d="M52.5976 23.9324L84.1295 23.9324C84.6832 23.9317 85.2252 24.0913 85.6901 24.392C86.155 24.6927 86.5229 25.1216 86.7493 25.6269C86.9756 26.1322 87.0508 26.6923 86.9658 27.2394C86.8807 27.7865 86.639 28.2972 86.2698 28.7099L70.9816 45.9092C70.0569 46.9677 69.5473 48.3256 69.5473 49.7312C69.5473 51.1368 70.0569 52.4947 70.9816 53.5533L86.2698 70.7525C86.639 71.1652 86.8807 71.676 86.9658 72.2231C87.0508 72.7702 86.9756 73.3302 86.7493 73.8355C86.5229 74.3408 86.155 74.7697 85.6901 75.0704C85.2252 75.3712 84.6832 75.5308 84.1295 75.5301L30.6208 75.5301C29.1003 75.5301 27.642 74.9261 26.5669 73.8509C25.4917 72.7757 24.8877 71.3175 24.8877 69.797L24.8877 58.3308" fill-rule="nonzero" stroke-linecap="round" stroke-linejoin="round" stroke-width="2"/>
    </g>
</symbol><symbol id="frame-right-double" viewBox="0 0 190.696 197">
    <g id="Group 2608836">
        <path id="image" d="M80.8472 166.457L162.391 166.457L162.391 83.2287C162.391 37.2625 126.039 0 81.1949 0C36.3511 0 -0.00012207 37.2625 -0.00012207 83.2287C-0.00012207 129.075 36.1661 166.244 80.8472 166.439L80.8472 166.457ZM82.8472 164.457L160.391 164.457L160.391 83.2287C160.391 79.0077 160.08 74.8337 159.457 70.7067C159.262 69.4154 159.036 68.1288 158.781 66.8467C158.175 63.8129 157.404 60.8319 156.468 57.9037C155.787 55.7729 155.018 53.67 154.162 51.5951C153.098 49.0156 151.908 46.5035 150.593 44.0587C149.443 41.9193 148.197 39.8315 146.855 37.7952C145.176 35.2487 143.367 32.8112 141.426 30.483C140.074 28.8602 138.658 27.2904 137.178 25.7737C134.77 23.305 132.224 21.0092 129.542 18.8865C128.213 17.8346 126.85 16.8252 125.454 15.8583C122.554 13.85 119.547 12.0514 116.433 10.4624C114.98 9.72111 113.504 9.02547 112.005 8.37546C109.285 7.19609 106.515 6.17894 103.696 5.32402C101.542 4.67072 99.3598 4.11215 97.1484 3.64831C95.527 3.30822 93.898 3.02076 92.2615 2.78593C88.6102 2.26198 84.9214 2 81.1949 2C77.4682 2 73.779 2.26202 70.1275 2.78605C68.4913 3.02086 66.8626 3.30828 65.2416 3.64831C63.0293 4.11234 60.8457 4.67117 58.691 5.32481C55.8732 6.17957 53.1047 7.19645 50.3853 8.37545C48.885 9.02591 47.408 9.72205 45.9543 10.4639C42.8414 12.0525 39.8353 13.8506 36.9362 15.8583C35.5416 16.8241 34.1806 17.8322 32.8531 18.8827C30.1692 21.0065 27.6224 23.3035 25.2126 25.7736C23.7325 27.2907 22.3162 28.8609 20.9635 30.4841C19.0235 32.812 17.2145 35.2491 15.5364 37.7952C14.1921 39.8348 12.944 41.9261 11.7921 44.0691C10.4797 46.5107 9.29205 49.0193 8.22924 51.5951C7.37219 53.6721 6.60282 55.7772 5.92112 57.9104C4.98602 60.8364 4.2159 63.8152 3.61074 66.8467C3.35431 68.1312 3.1285 69.4204 2.9333 70.7142C2.31102 74.8388 1.99988 79.0102 1.99988 83.2287C1.99988 87.4549 2.31221 91.6339 2.93688 95.7656C3.1292 97.0377 3.35112 98.3053 3.60265 99.5684C4.20604 102.598 4.9743 105.576 5.90743 108.501C6.58435 110.623 7.34804 112.717 8.19849 114.783C9.25505 117.35 10.4356 119.851 11.7403 122.285C12.8878 124.426 14.1313 126.516 15.4707 128.554C17.1371 131.09 18.9334 133.518 20.8596 135.838C22.21 137.465 23.6242 139.038 25.1023 140.559C27.4997 143.025 30.0337 145.32 32.7042 147.443C34.0272 148.495 35.3838 149.504 36.7739 150.472C39.6616 152.482 42.6563 154.283 45.758 155.877C47.2041 156.619 48.6734 157.317 50.166 157.97C52.8818 159.157 55.6472 160.182 58.4622 161.045C60.6004 161.701 62.7673 162.263 64.9627 162.732C66.6029 163.082 68.251 163.379 69.907 163.621C73.5191 164.15 77.1688 164.423 80.856 164.439L82.8472 164.448L82.8472 164.457Z" fill-rule="evenodd"/>
        <path id="image" d="M141.321 197L190.696 197L190.696 146.604C190.696 118.772 168.684 96.209 141.531 96.209C114.378 96.209 92.3671 118.772 92.3671 146.604C92.3671 174.365 114.266 196.87 141.321 196.989L141.321 197ZM143.321 195L188.696 195L188.696 146.604C188.696 144.074 188.508 141.573 188.133 139.1C188.018 138.343 187.886 137.59 187.736 136.839C187.374 135.028 186.914 133.248 186.355 131.5C185.949 130.234 185.492 128.984 184.984 127.751C184.349 126.213 183.64 124.715 182.856 123.258C182.171 121.984 181.429 120.741 180.629 119.528C179.627 118.008 178.546 116.552 177.387 115.162C176.584 114.199 175.743 113.267 174.864 112.366C173.423 110.888 171.898 109.514 170.292 108.245C169.508 107.625 168.704 107.03 167.881 106.46C166.146 105.259 164.348 104.183 162.484 103.234C161.627 102.798 160.757 102.388 159.873 102.004C158.25 101.301 156.597 100.694 154.915 100.184C153.637 99.7968 152.341 99.4655 151.029 99.1902C150.074 98.9899 149.115 98.8203 148.151 98.6813C145.967 98.3664 143.76 98.209 141.531 98.209C139.302 98.209 137.095 98.3664 134.911 98.6814C133.947 98.8203 132.988 98.99 132.033 99.1902C130.719 99.4658 129.423 99.7975 128.143 100.185C126.463 100.695 124.811 101.301 123.189 102.004C122.305 102.388 121.435 102.798 120.578 103.234C118.715 104.183 116.916 105.259 115.181 106.46C114.359 107.03 113.556 107.624 112.772 108.243C111.165 109.513 109.641 110.887 108.198 112.366C107.319 113.267 106.478 114.199 105.674 115.163C104.516 116.553 103.435 118.008 102.433 119.528C101.633 120.742 100.89 121.987 100.204 123.263C99.4215 124.719 98.7132 126.215 98.0793 127.751C97.5698 128.986 97.1123 130.237 96.7068 131.505C96.1483 133.252 95.6884 135.03 95.3272 136.839C95.1771 137.591 95.0447 138.345 94.9298 139.102C94.5546 141.575 94.3671 144.075 94.3671 146.604C94.3671 149.137 94.5552 151.641 94.9314 154.116C95.0447 154.861 95.175 155.604 95.3224 156.344C95.6827 158.154 96.1417 159.932 96.6994 161.678C97.1019 162.939 97.5557 164.183 98.061 165.41C98.6913 166.942 99.3956 168.434 100.174 169.886C100.857 171.16 101.597 172.403 102.394 173.616C103.388 175.128 104.459 176.575 105.607 177.958C106.411 178.926 107.253 179.863 108.132 180.768C109.563 182.24 111.075 183.609 112.668 184.875C113.454 185.499 114.259 186.098 115.085 186.673C116.807 187.872 118.593 188.946 120.444 189.896C121.302 190.336 122.173 190.75 123.059 191.137C124.679 191.845 126.328 192.457 128.007 192.971C129.277 193.36 130.564 193.694 131.867 193.972C132.834 194.179 133.806 194.354 134.782 194.498C136.942 194.815 139.124 194.979 141.329 194.989L143.321 194.997L143.321 195Z" fill-rule="evenodd"/>
    </g>
</symbol><symbol id="frame-right-one" viewBox="0 0 257 257">
	<path id="image" d="M127.949 257L257 257L257 128.5C257 57.531 199.468 0 128.499 0C57.5292 0 0 57.531 0 128.5C0 199.284 57.2365 256.67 127.949 256.972L127.949 257ZM129.949 255L255 255L255 128.5C255 122.258 254.551 116.081 253.654 109.971C253.311 107.639 252.903 105.316 252.43 103.004C251.586 98.8793 250.541 94.8176 249.295 90.8186C248.076 86.9061 246.664 83.0535 245.06 79.2609C243.705 76.0591 242.224 72.9238 240.616 69.8551C238.442 65.7064 236.035 61.6793 233.397 57.7739C231.313 54.6886 229.102 51.7062 226.764 48.8265C224.002 45.4245 221.064 42.1659 217.949 39.0509C214.842 35.9444 211.593 33.0136 208.201 30.2586C205.313 27.9126 202.321 25.6941 199.226 23.6029C195.312 20.9587 191.275 18.5476 187.117 16.3696C184.057 14.7669 180.931 13.2904 177.738 11.9401C173.937 10.3321 170.075 8.91756 166.152 7.69639C162.162 6.45412 158.11 5.412 153.995 4.57004C151.679 4.09609 149.354 3.68769 147.018 3.34485C140.911 2.44828 134.738 2 128.499 2C122.261 2 116.089 2.44812 109.983 3.34435C107.647 3.6873 105.32 4.09586 103.002 4.57005C98.8886 5.41183 94.8371 6.45369 90.848 7.69562C86.925 8.91696 83.0622 10.3318 79.2597 11.9401C76.0641 13.2917 72.9348 14.7699 69.8717 16.3745C65.7168 18.5512 61.6838 20.9607 57.7728 23.6029C54.6811 25.6916 51.6926 27.9075 48.8074 30.2505C45.412 33.0079 42.1595 35.9413 39.05 39.0508C35.9434 42.1575 33.0126 45.4069 30.2574 48.799C27.9117 51.6872 25.6933 54.6788 23.6024 57.7739C20.9626 61.6813 18.5552 65.7105 16.3802 69.8615C14.7732 72.9282 13.2931 76.0613 11.9399 79.2609C10.3321 83.0622 8.91769 86.9237 7.69666 90.8454C6.45424 94.8358 5.41201 98.8885 4.56998 103.004C4.0956 105.322 3.68689 107.65 3.34386 109.987C2.44795 116.093 2 122.263 2 128.5C2 134.746 2.44931 140.925 3.34794 147.039C3.68702 149.345 4.09007 151.643 4.55708 153.931C5.39642 158.043 6.43571 162.092 7.67498 166.08C8.88851 169.985 10.2938 173.83 11.8908 177.616C13.2344 180.801 14.7036 183.92 16.2986 186.973C18.4661 191.123 20.8658 195.151 23.4977 199.059C25.5664 202.13 27.7605 205.099 30.0801 207.967C32.8345 211.373 35.7658 214.636 38.874 217.755C41.9459 220.838 45.1584 223.749 48.5115 226.488C51.4073 228.853 54.4081 231.09 57.5137 233.199C61.3853 235.828 65.3776 238.228 69.4905 240.4C72.5628 242.023 75.7025 243.518 78.9094 244.885C82.6985 246.501 86.5482 247.924 90.4584 249.155C94.4287 250.405 98.4615 251.457 102.557 252.31C104.904 252.799 107.261 253.221 109.628 253.575C115.672 254.48 121.782 254.946 127.957 254.972L129.949 254.98L129.949 255Z" fill-rule="evenodd"/>
</symbol><symbol id="full-frame-right" viewBox="0 0 55 55">
    <path id="image" d="M55 27.5C55 12.3121 42.6878 0 27.4997 0C12.3117 0 0 12.3121 0 27.5C0 42.6483 12.2491 54.9293 27.382 54.994L27.382 55L55 55L55 27.5Z" fill-rule="evenodd"/>
</symbol><symbol id="grad" viewBox="0 0 88.1178 88.0244">
    <g id="Group 2608838">
        <path id="Vector" d="M16.565 47.981L1.05884 66.9308L15.3916 69.7974L21.1247 86.9967L36.199 63.0782" fill-rule="nonzero" stroke-linecap="round" stroke-linejoin="round" stroke-width="2"/>
        <path id="Vector" d="M71.5527 47.981L87.0588 66.9308L72.7261 69.7974L66.993 86.9967L51.9187 63.0782" fill-rule="nonzero" stroke-linecap="round" stroke-linejoin="round" stroke-width="2"/>
        <path id="Vector" d="M21.7607 54.8287C27.6741 60.7421 35.6944 64.0642 44.0573 64.0642C52.4201 64.0642 60.4404 60.7421 66.3538 54.8287C72.2672 48.9153 75.5894 40.8949 75.5894 32.5321C75.5894 24.1693 72.2672 16.149 66.3538 10.2355C60.4404 4.32212 52.4201 1 44.0573 1C35.6944 1 27.6741 4.32212 21.7607 10.2355C15.8473 16.149 12.5251 24.1693 12.5251 32.5321C12.5251 40.8949 15.8473 48.9153 21.7607 54.8287Z" fill-rule="nonzero" stroke-linecap="round" stroke-linejoin="round" stroke-width="2"/>
        <path id="Vector" d="M50.8581 23.932L58.9876 23.932C59.4352 23.9211 59.8756 24.0454 60.2513 24.2888C60.627 24.5322 60.9206 24.8833 61.0936 25.2961C61.2666 25.709 61.311 26.1645 61.221 26.603C61.131 27.0415 60.9107 27.4427 60.5891 27.7541L53.1246 35.0848L57.2601 44.5827C57.4423 45.0177 57.4834 45.4989 57.3774 45.9585C57.2715 46.4181 57.0238 46.8328 56.6695 47.1441C56.3151 47.4553 55.872 47.6474 55.4026 47.6933C54.9332 47.7391 54.4612 47.6364 54.0533 47.3995L44.0586 41.7773L34.0639 47.3995C33.656 47.6364 33.1841 47.7391 32.7146 47.6933C32.2452 47.6474 31.8021 47.4553 31.4477 47.1441C31.0934 46.8328 30.8457 46.4181 30.7398 45.9585C30.6338 45.4989 30.6749 45.0177 30.8572 44.5827L34.9927 35.0848L27.5281 27.7388C27.2065 27.4274 26.9863 27.0263 26.8963 26.5877C26.8062 26.1492 26.8506 25.6937 27.0236 25.2809C27.1966 24.868 27.4902 24.5169 27.8659 24.2735C28.2416 24.0301 28.6821 23.9058 29.1296 23.9167L37.2591 23.9167L42.0329 14.5373C42.2278 14.1685 42.5196 13.8598 42.8769 13.6445C43.2341 13.4292 43.6434 13.3154 44.0605 13.3154C44.4777 13.3154 44.8869 13.4292 45.2442 13.6445C45.6015 13.8598 45.8933 14.1685 46.0881 14.5373L50.8581 23.932Z" fill-rule="nonzero" stroke-linecap="round" stroke-linejoin="round" stroke-width="2"/>
    </g>
</symbol><symbol id="mail" viewBox="0 0 24 24">
    <rect id="mail" width="24.000000" height="24.000000" x="0.000000" y="0.000000"/>
    <path id="Vector" d="M3.55384 20.1497C3.09384 20.1497 2.695 19.9808 2.35734 19.643C2.0195 19.3053 1.85059 18.9065 1.85059 18.4465L1.85059 5.55398C1.85059 5.09231 2.0195 4.69206 2.35734 4.35323C2.695 4.01423 3.09384 3.84473 3.55384 3.84473L20.4463 3.84473C20.908 3.84473 21.3083 4.01423 21.6471 4.35323C21.9861 4.69206 22.1556 5.09231 22.1556 5.55398L22.1556 18.4465C22.1556 18.9065 21.9861 19.3053 21.6471 19.643C21.3083 19.9808 20.908 20.1497 20.4463 20.1497L3.55384 20.1497ZM20.4463 7.06648L12.4603 12.3245C12.3822 12.366 12.3088 12.4002 12.2401 12.4272C12.1714 12.4542 12.0914 12.4677 12.0001 12.4677C11.9088 12.4677 11.8288 12.4542 11.7601 12.4272C11.6914 12.4002 11.618 12.366 11.5398 12.3245L3.55384 7.06648L3.55384 18.4465L20.4463 18.4465L20.4463 7.06648ZM12.0001 11.004L20.3463 5.55398L3.67884 5.55398L12.0001 11.004ZM3.55384 7.25948L3.55384 6.18398L3.55384 6.20423L3.55384 5.55398L3.55384 6.19473L3.55384 6.16598L3.55384 7.25948Z" fill-rule="nonzero"/>
    <path id="Vector" d="M2.18234 4.55398C2.08113 4.68812 2.00307 4.83068 1.94818 4.98165C1.88333 5.16001 1.8508 5.35011 1.85059 5.55196L1.85059 5.55398L1.85059 18.4465C1.85059 18.9065 2.0195 19.3053 2.35734 19.643C2.54781 19.8335 2.75775 19.9704 2.98716 20.0534C3.16443 20.1176 3.35332 20.1497 3.55384 20.1497L20.4463 20.1497C20.908 20.1497 21.3083 19.9808 21.6471 19.643C21.9861 19.3053 22.1556 18.9065 22.1556 18.4465L22.1556 5.55398C22.1556 5.18044 22.0446 4.8471 21.8227 4.55398C21.7703 4.48482 21.7118 4.4179 21.6471 4.35323C21.3083 4.01423 20.908 3.84473 20.4463 3.84473L3.55384 3.84473C3.35454 3.84473 3.16673 3.87654 2.9904 3.94017C2.75973 4.02341 2.54871 4.1611 2.35734 4.35323C2.29285 4.4179 2.23451 4.48482 2.18234 4.55398ZM20.3463 5.55398L12.0001 11.004L4.55384 6.12706L3.67884 5.55398L20.3463 5.55398ZM3.84697 7.25948L3.55384 7.06648L3.55384 18.4465L20.4463 18.4465L20.4463 7.06648L19.4463 7.72488L12.4603 12.3245C12.3822 12.366 12.3088 12.4002 12.2401 12.4272C12.1714 12.4542 12.0914 12.4677 12.0001 12.4677C11.9088 12.4677 11.8288 12.4542 11.7601 12.4272C11.6914 12.4002 11.618 12.366 11.5398 12.3245L4.55384 7.72488L3.84697 7.25948Z" fill-rule="evenodd"/>
</symbol><symbol id="marker" viewBox="0 0 24 24">
    <rect id="Ultimate/Location" width="24.000000" height="24.000000" x="0.000000" y="0.000000" fill-opacity="0"/>
    <path id="Vector" d="M9.87868 9.62132C10.4413 10.1839 11.2044 10.5 12 10.5C12.7956 10.5 13.5587 10.1839 14.1213 9.62132C14.6839 9.05871 15 8.29565 15 7.5C15 6.70435 14.6839 5.94129 14.1213 5.37868C13.5587 4.81607 12.7956 4.5 12 4.5C11.2044 4.5 10.4413 4.81607 9.87868 5.37868C9.31607 5.94129 9 6.70435 9 7.5C9 8.29565 9.31607 9.05871 9.87868 9.62132Z" fill-rule="nonzero" stroke-linecap="round" stroke-linejoin="round" stroke-width="1.5"/>
    <path id="Vector" d="M16.773 2.72703C18.0388 3.9929 18.75 5.70979 18.75 7.5C18.75 10.751 13.618 18.027 12.304 19.837C12.269 19.8847 12.2232 19.9236 12.1704 19.9503C12.1176 19.9771 12.0592 19.991 12 19.991C11.9408 19.991 11.8824 19.9771 11.8296 19.9503C11.7768 19.9236 11.731 19.8847 11.696 19.837C10.382 18.027 5.25 10.751 5.25 7.5C5.25 5.70979 5.96116 3.9929 7.22703 2.72703C8.4929 1.46116 10.2098 0.75 12 0.75C13.7902 0.75 15.5071 1.46116 16.773 2.72703Z" fill-rule="nonzero" stroke-linecap="round" stroke-linejoin="round" stroke-width="1.5"/>
    <path id="Vector" d="M17.979 17.7842C20.711 18.3252 22.5 19.2282 22.5 20.2502C22.5 21.9072 17.8 23.2502 12 23.2502C6.2 23.2502 1.5 21.9072 1.5 20.2502C1.5 19.2302 3.281 18.3292 6 17.7872" fill-rule="nonzero" stroke-linecap="round" stroke-linejoin="round" stroke-width="1.5"/>
</symbol><symbol id="notification" viewBox="0 0 34 34">
<path d="M21.0472 24.1991C23.7312 23.8807 26.3193 23.2497 28.7741 22.3435C26.7386 20.0841 25.4997 17.093 25.4997 13.8125V12.8197C25.4999 12.7965 25.5 12.7732 25.5 12.75C25.5 8.05558 21.6944 4.25 17 4.25C12.3056 4.25 8.5 8.05558 8.5 12.75L8.49972 13.8125C8.49972 17.093 7.2608 20.0841 5.22534 22.3435C7.68032 23.2498 10.2686 23.8808 12.9528 24.1992M21.0472 24.1991C19.72 24.3565 18.3693 24.4375 16.9997 24.4375C15.6303 24.4375 14.2798 24.3565 12.9528 24.1992M21.0472 24.1991C21.1789 24.6091 21.25 25.0462 21.25 25.5C21.25 27.8472 19.3472 29.75 17 29.75C14.6528 29.75 12.75 27.8472 12.75 25.5C12.75 25.0463 12.8211 24.6091 12.9528 24.1992" stroke-width="2" stroke-linecap="round" stroke-linejoin="round"/>
</symbol><symbol id="person-outline" viewBox="0 0 20 20">
    <rect id="account_circle" width="20.000000" height="20.000000" x="0.000000" y="0.000000"/>
    <path id="Vector" d="M4.64491 14.6327C5.51658 14.0283 6.3813 13.5645 7.23908 13.2415C8.09685 12.9184 9.01783 12.7569 10.002 12.7569C10.9863 12.7569 11.9116 12.9197 12.778 13.2452C13.6443 13.5709 14.5102 14.0334 15.3757 14.6327C15.9803 13.8794 16.4086 13.1284 16.6605 12.3796C16.9125 11.6307 17.0384 10.8375 17.0384 10C17.0384 8.00197 16.365 6.32933 15.018 4.98211C13.6711 3.63503 11.9987 2.96148 10.0007 2.96148C8.00296 2.96148 6.33026 3.63503 4.98262 4.98211C3.63512 6.32933 2.96137 8.00197 2.96137 10C2.96137 10.8372 3.09005 11.6299 3.34741 12.3779C3.60477 13.126 4.03727 13.8776 4.64491 14.6327ZM9.99595 10.6598C9.18248 10.6598 8.49915 10.3818 7.94595 9.82565C7.39262 9.2694 7.11595 8.58565 7.11595 7.7744C7.11595 6.96315 7.39387 6.27989 7.9497 5.72461C8.50567 5.16933 9.1904 4.89169 10.0039 4.89169C10.8173 4.89169 11.5007 5.17065 12.0539 5.72857C12.6072 6.28634 12.8839 6.97086 12.8839 7.78211C12.8839 8.5935 12.6059 9.276 12.0501 9.82961C11.4941 10.3831 10.8094 10.6598 9.99595 10.6598ZM10.0068 18.4579C8.84664 18.4579 7.75241 18.2362 6.72408 17.7927C5.6956 17.3493 4.79658 16.7428 4.02699 15.9734C3.25727 15.2038 2.65067 14.3063 2.2072 13.2809C1.76373 12.2556 1.54199 11.16 1.54199 9.99398C1.54199 8.8319 1.76408 7.73912 2.20824 6.71565C2.65241 5.69204 3.2588 4.796 4.02741 4.02753C4.79588 3.25891 5.69289 2.65169 6.71845 2.20586C7.74401 1.76003 8.83984 1.53711 10.0059 1.53711C11.168 1.53711 12.2608 1.76003 13.2843 2.20586C14.3079 2.65169 15.2039 3.25891 15.9724 4.02753C16.741 4.796 17.3482 5.69239 17.7941 6.71669C18.2399 7.741 18.4628 8.83315 18.4628 9.99315C18.4628 11.1533 18.2399 12.2477 17.7941 13.2765C17.3482 14.3054 16.741 15.2041 15.9724 15.9725C15.2039 16.7411 14.3075 17.3475 13.2832 17.7917C12.2589 18.2359 11.1668 18.4579 10.0068 18.4579ZM9.99991 17.0386C10.7538 17.0386 11.4871 16.9308 12.1997 16.7152C12.9122 16.4995 13.6226 16.1189 14.3309 15.5734C13.6193 15.0767 12.9054 14.7006 12.1893 14.445C11.473 14.1895 10.7432 14.0617 9.99991 14.0617C9.25657 14.0617 8.52762 14.1895 7.81303 14.445C7.09859 14.7006 6.38553 15.0767 5.67387 15.5734C6.3822 16.1189 7.09178 16.4995 7.80262 16.7152C8.51359 16.9308 9.24602 17.0386 9.99991 17.0386ZM9.99991 9.35003C10.4617 9.35003 10.8396 9.20405 11.1334 8.91211C11.4273 8.62016 11.5743 8.24225 11.5743 7.77836C11.5743 7.31447 11.4273 6.93572 11.1334 6.64211C10.8396 6.34836 10.4617 6.20148 9.99991 6.20148C9.5381 6.20148 9.16026 6.34836 8.86637 6.64211C8.57248 6.93572 8.42553 7.31447 8.42553 7.77836C8.42553 8.24225 8.57248 8.62016 8.86637 8.91211C9.16026 9.20405 9.5381 9.35003 9.99991 9.35003Z" fill-rule="nonzero"/>
</symbol><symbol id="phone" viewBox="0 0 24 24">
    <path id="Vector" d="M19.8871 21.1497C17.9294 21.1497 15.9376 20.6791 13.9116 19.7377C11.8854 18.7964 10.007 17.4604 8.27634 15.7297C6.54584 13.9992 5.20892 12.1199 4.26559 10.0917C3.32225 8.06372 2.85059 6.07289 2.85059 4.11923C2.85059 3.75739 2.972 3.45456 3.21484 3.21073C3.4575 2.96673 3.75892 2.84473 4.11909 2.84473L7.61909 2.84473C7.92025 2.84473 8.17309 2.94106 8.37759 3.13373C8.58209 3.32623 8.72367 3.57939 8.80234 3.89323L9.47559 6.93848C9.51809 7.22564 9.5125 7.48198 9.45884 7.70748C9.40517 7.93314 9.29384 8.12648 9.12484 8.28748L6.60659 10.771C7.02392 11.4723 7.46634 12.1277 7.93384 12.7372C8.40117 13.3466 8.9205 13.9266 9.49184 14.4775C10.0927 15.0988 10.7198 15.661 11.3731 16.164C12.0266 16.6671 12.7084 17.1067 13.4186 17.4827L15.8233 15.015C16.018 14.8036 16.2408 14.6606 16.4918 14.586C16.743 14.5115 16.9963 14.4988 17.2518 14.548L20.1071 15.1802C20.4209 15.2667 20.6741 15.4263 20.8666 15.659C21.0593 15.8916 21.1556 16.1621 21.1556 16.4702L21.1556 19.8812C21.1556 20.2436 21.0335 20.5456 20.7893 20.7872C20.5452 21.0289 20.2444 21.1497 19.8871 21.1497ZM5.75509 9.22848L7.77409 7.22023L7.20509 4.55398L4.56584 4.55398C4.59517 5.23014 4.70159 5.94564 4.88509 6.70048C5.06859 7.45531 5.35859 8.29798 5.75509 9.22848ZM14.9978 18.3275C15.6613 18.6361 16.3841 18.8885 17.1661 19.0845C17.9483 19.2805 18.7083 19.3971 19.4463 19.4345L19.4463 16.7845L16.9608 16.2702L14.9978 18.3275Z" fill-rule="nonzero"/>
    <path id="Vector" d="M6.60659 10.771L9.12484 8.28748C9.29384 8.12648 9.40517 7.93314 9.45884 7.70748C9.5125 7.48198 9.51809 7.22564 9.47559 6.93848L8.80234 3.89323C8.72367 3.57939 8.58209 3.32623 8.37759 3.13373C8.17309 2.94106 7.92025 2.84473 7.61909 2.84473L4.11909 2.84473C3.75892 2.84473 3.4575 2.96673 3.21484 3.21073C2.972 3.45456 2.85059 3.75739 2.85059 4.11923C2.85059 6.07289 3.32225 8.06373 4.26559 10.0917C5.20892 12.1199 6.54584 13.9992 8.27634 15.7297C10.007 17.4604 11.8854 18.7964 13.9116 19.7377C15.9376 20.6791 17.9294 21.1497 19.8871 21.1497C20.2444 21.1497 20.5452 21.0289 20.7893 20.7872C21.0335 20.5456 21.1556 20.2436 21.1556 19.8812L21.1556 16.4702C21.1556 16.1621 21.0593 15.8916 20.8666 15.659C20.6741 15.4263 20.4209 15.2667 20.1071 15.1802L17.2518 14.548C16.9963 14.4988 16.743 14.5115 16.4918 14.586C16.2408 14.6606 16.018 14.8036 15.8233 15.015L13.4186 17.4827C12.7084 17.1067 12.0266 16.6671 11.3731 16.164C10.7198 15.661 10.0927 15.0988 9.49184 14.4775C8.9205 13.9266 8.40117 13.3466 7.93384 12.7372C7.46634 12.1277 7.02392 11.4723 6.60659 10.771ZM7.77409 7.22023L6.52125 8.46639L5.75509 9.22848C5.60621 8.87909 5.47235 8.54209 5.3535 8.21747C5.15582 7.67755 4.99969 7.17188 4.88509 6.70048C4.78959 6.30766 4.71497 5.92549 4.66123 5.55398C4.6117 5.2116 4.5799 4.87826 4.56584 4.55398L7.20509 4.55398L7.77409 7.22023ZM18.4463 19.3373C18.0264 19.2774 17.5996 19.1931 17.1661 19.0845C16.7591 18.9825 16.3682 18.8652 15.9934 18.7327C15.6479 18.6106 15.316 18.4755 14.9978 18.3275L16.9608 16.2702L19.4463 16.7845L19.4463 19.4345C19.1174 19.4178 18.7841 19.3854 18.4463 19.3373Z" fill-rule="evenodd"/>
</symbol><symbol id="search" viewBox="0 0 34 34">
<path d="M29.75 29.75L22.388 22.388M22.388 22.388C24.3108 20.4653 25.5 17.809 25.5 14.875C25.5 9.00697 20.743 4.25 14.875 4.25C9.00697 4.25 4.25 9.00697 4.25 14.875C4.25 20.743 9.00697 25.5 14.875 25.5C17.809 25.5 20.4653 24.3108 22.388 22.388Z" stroke-width="2" stroke-linecap="round" stroke-linejoin="round"/>
</symbol><symbol id="shield" viewBox="0 0 88.1006 76.5352">
    <g id="Group 2608837">
        <path id="Vector" d="M22.6436 50.8818C26.5429 56.0396 31.8011 60.01 37.8292 62.3485L40.887 63.5257C42.9241 64.3095 45.1795 64.3095 47.2166 63.5257L50.2744 62.3485C56.302 60.0091 61.56 56.0389 65.4601 50.8818" fill-rule="nonzero" stroke-linecap="round" stroke-linejoin="round" stroke-width="2"/>
        <path id="Vector" d="M72.3539 34.4203C72.5829 32.8468 72.7042 31.2594 72.717 29.6693L72.717 10.3327C72.7225 9.49047 72.4849 8.66455 72.0327 7.95403C71.5805 7.24351 70.9329 6.67856 70.1675 6.32698C61.933 2.73548 53.0336 0.921211 44.0503 1.00262C35.067 0.921211 26.1676 2.73548 17.9331 6.32698C17.1677 6.67856 16.5201 7.24351 16.0679 7.95403C15.6157 8.66455 15.3781 9.49047 15.3836 10.3327L15.3836 29.6693C15.4027 31.2598 15.5304 32.8472 15.7659 34.4203" fill-rule="nonzero" stroke-linecap="round" stroke-linejoin="round" stroke-width="2"/>
        <path id="Vector" d="M15.5938 43.3979C15.5938 43.3979 12.517 55.4685 1.05029 55.4685L9.65029 61.2019L1.05029 75.5352C5.46541 75.3767 9.79566 74.2764 13.7509 72.308C17.7061 70.3396 21.1949 67.5486 23.9836 64.122" fill-rule="nonzero" stroke-linecap="round" stroke-linejoin="round" stroke-width="2"/>
        <path id="Vector" d="M72.5067 43.3979C72.5067 43.3979 75.5645 55.4685 87.0503 55.4685L78.4503 61.2019L87.0503 75.5352C82.6352 75.3767 78.3049 74.2764 74.3497 72.308C70.3945 70.3396 66.9056 67.5486 64.1169 64.122" fill-rule="nonzero" stroke-linecap="round" stroke-linejoin="round" stroke-width="2"/>
        <path id="Vector" d="M56.7599 44.3827C60.7158 46.3607 64.202 49.1632 66.9838 52.6017L75.5838 38.2684C75.5838 38.2684 66.9838 23.9351 44.0504 23.9351C21.1171 23.9351 12.5171 38.2684 12.5171 38.2684L21.1171 52.6017C23.8988 49.1632 27.385 46.3607 31.3409 44.3827C35.2968 42.4048 39.6306 41.2974 44.0504 41.1351C48.4703 41.2974 52.804 42.4048 56.7599 44.3827Z" fill-rule="nonzero" stroke-linecap="round" stroke-linejoin="round" stroke-width="2"/>
    </g>
</symbol></svg>