<svg viewBox="0 0 24 24" xmlns="http://www.w3.org/2000/svg"
    xmlns:xlink="http://www.w3.org/1999/xlink" width="24.000000" height="24.000000" fill="none">
    <rect id="mail" width="24.000000" height="24.000000" x="0.000000" y="0.000000" />
    <path id="Vector"
        d="M3.55384 20.1497C3.09384 20.1497 2.695 19.9808 2.35734 19.643C2.0195 19.3053 1.85059 18.9065 1.85059 18.4465L1.85059 5.55398C1.85059 5.09231 2.0195 4.69206 2.35734 4.35323C2.695 4.01423 3.09384 3.84473 3.55384 3.84473L20.4463 3.84473C20.908 3.84473 21.3083 4.01423 21.6471 4.35323C21.9861 4.69206 22.1556 5.09231 22.1556 5.55398L22.1556 18.4465C22.1556 18.9065 21.9861 19.3053 21.6471 19.643C21.3083 19.9808 20.908 20.1497 20.4463 20.1497L3.55384 20.1497ZM20.4463 7.06648L12.4603 12.3245C12.3822 12.366 12.3088 12.4002 12.2401 12.4272C12.1714 12.4542 12.0914 12.4677 12.0001 12.4677C11.9088 12.4677 11.8288 12.4542 11.7601 12.4272C11.6914 12.4002 11.618 12.366 11.5398 12.3245L3.55384 7.06648L3.55384 18.4465L20.4463 18.4465L20.4463 7.06648ZM12.0001 11.004L20.3463 5.55398L3.67884 5.55398L12.0001 11.004ZM3.55384 7.25948L3.55384 6.18398L3.55384 6.20423L3.55384 5.55398L3.55384 6.19473L3.55384 6.16598L3.55384 7.25948Z"
        fill="rgb(219,8,18)" fill-rule="nonzero" />
    <path id="Vector"
        d="M2.18234 4.55398C2.08113 4.68812 2.00307 4.83068 1.94818 4.98165C1.88333 5.16001 1.8508 5.35011 1.85059 5.55196L1.85059 5.55398L1.85059 18.4465C1.85059 18.9065 2.0195 19.3053 2.35734 19.643C2.54781 19.8335 2.75775 19.9704 2.98716 20.0534C3.16443 20.1176 3.35332 20.1497 3.55384 20.1497L20.4463 20.1497C20.908 20.1497 21.3083 19.9808 21.6471 19.643C21.9861 19.3053 22.1556 18.9065 22.1556 18.4465L22.1556 5.55398C22.1556 5.18044 22.0446 4.8471 21.8227 4.55398C21.7703 4.48482 21.7118 4.4179 21.6471 4.35323C21.3083 4.01423 20.908 3.84473 20.4463 3.84473L3.55384 3.84473C3.35454 3.84473 3.16673 3.87654 2.9904 3.94017C2.75973 4.02341 2.54871 4.1611 2.35734 4.35323C2.29285 4.4179 2.23451 4.48482 2.18234 4.55398ZM20.3463 5.55398L12.0001 11.004L4.55384 6.12706L3.67884 5.55398L20.3463 5.55398ZM3.84697 7.25948L3.55384 7.06648L3.55384 18.4465L20.4463 18.4465L20.4463 7.06648L19.4463 7.72488L12.4603 12.3245C12.3822 12.366 12.3088 12.4002 12.2401 12.4272C12.1714 12.4542 12.0914 12.4677 12.0001 12.4677C11.9088 12.4677 11.8288 12.4542 11.7601 12.4272C11.6914 12.4002 11.618 12.366 11.5398 12.3245L4.55384 7.72488L3.84697 7.25948Z"
        fill="rgb(219,8,18)" fill-rule="evenodd" />
</svg>