<svg viewBox="0 0 20 20" xmlns="http://www.w3.org/2000/svg"
    xmlns:xlink="http://www.w3.org/1999/xlink" width="20.000000" height="20.000000" fill="none"
    customFrame="#000000">
    <rect id="account_circle" width="20.000000" height="20.000000" x="0.000000" y="0.000000" />
    <path id="Vector"
        d="M4.64491 14.6327C5.51658 14.0283 6.3813 13.5645 7.23908 13.2415C8.09685 12.9184 9.01783 12.7569 10.002 12.7569C10.9863 12.7569 11.9116 12.9197 12.778 13.2452C13.6443 13.5709 14.5102 14.0334 15.3757 14.6327C15.9803 13.8794 16.4086 13.1284 16.6605 12.3796C16.9125 11.6307 17.0384 10.8375 17.0384 10C17.0384 8.00197 16.365 6.32933 15.018 4.98211C13.6711 3.63503 11.9987 2.96148 10.0007 2.96148C8.00296 2.96148 6.33026 3.63503 4.98262 4.98211C3.63512 6.32933 2.96137 8.00197 2.96137 10C2.96137 10.8372 3.09005 11.6299 3.34741 12.3779C3.60477 13.126 4.03727 13.8776 4.64491 14.6327ZM9.99595 10.6598C9.18248 10.6598 8.49915 10.3818 7.94595 9.82565C7.39262 9.2694 7.11595 8.58565 7.11595 7.7744C7.11595 6.96315 7.39387 6.27989 7.9497 5.72461C8.50567 5.16933 9.1904 4.89169 10.0039 4.89169C10.8173 4.89169 11.5007 5.17065 12.0539 5.72857C12.6072 6.28634 12.8839 6.97086 12.8839 7.78211C12.8839 8.5935 12.6059 9.276 12.0501 9.82961C11.4941 10.3831 10.8094 10.6598 9.99595 10.6598ZM10.0068 18.4579C8.84664 18.4579 7.75241 18.2362 6.72408 17.7927C5.6956 17.3493 4.79658 16.7428 4.02699 15.9734C3.25727 15.2038 2.65067 14.3063 2.2072 13.2809C1.76373 12.2556 1.54199 11.16 1.54199 9.99398C1.54199 8.8319 1.76408 7.73912 2.20824 6.71565C2.65241 5.69204 3.2588 4.796 4.02741 4.02753C4.79588 3.25891 5.69289 2.65169 6.71845 2.20586C7.74401 1.76003 8.83984 1.53711 10.0059 1.53711C11.168 1.53711 12.2608 1.76003 13.2843 2.20586C14.3079 2.65169 15.2039 3.25891 15.9724 4.02753C16.741 4.796 17.3482 5.69239 17.7941 6.71669C18.2399 7.741 18.4628 8.83315 18.4628 9.99315C18.4628 11.1533 18.2399 12.2477 17.7941 13.2765C17.3482 14.3054 16.741 15.2041 15.9724 15.9725C15.2039 16.7411 14.3075 17.3475 13.2832 17.7917C12.2589 18.2359 11.1668 18.4579 10.0068 18.4579ZM9.99991 17.0386C10.7538 17.0386 11.4871 16.9308 12.1997 16.7152C12.9122 16.4995 13.6226 16.1189 14.3309 15.5734C13.6193 15.0767 12.9054 14.7006 12.1893 14.445C11.473 14.1895 10.7432 14.0617 9.99991 14.0617C9.25657 14.0617 8.52762 14.1895 7.81303 14.445C7.09859 14.7006 6.38553 15.0767 5.67387 15.5734C6.3822 16.1189 7.09178 16.4995 7.80262 16.7152C8.51359 16.9308 9.24602 17.0386 9.99991 17.0386ZM9.99991 9.35003C10.4617 9.35003 10.8396 9.20405 11.1334 8.91211C11.4273 8.62016 11.5743 8.24225 11.5743 7.77836C11.5743 7.31447 11.4273 6.93572 11.1334 6.64211C10.8396 6.34836 10.4617 6.20148 9.99991 6.20148C9.5381 6.20148 9.16026 6.34836 8.86637 6.64211C8.57248 6.93572 8.42553 7.31447 8.42553 7.77836C8.42553 8.24225 8.57248 8.62016 8.86637 8.91211C9.16026 9.20405 9.5381 9.35003 9.99991 9.35003Z"
        fill="rgb(0,0,0)" fill-rule="nonzero" />
</svg>