<svg viewBox="0 0 24 24" xmlns="http://www.w3.org/2000/svg"
    xmlns:xlink="http://www.w3.org/1999/xlink" width="24.000000" height="24.000000" fill="none">
    <path id="Vector"
        d="M19.8871 21.1497C17.9294 21.1497 15.9376 20.6791 13.9116 19.7377C11.8854 18.7964 10.007 17.4604 8.27634 15.7297C6.54584 13.9992 5.20892 12.1199 4.26559 10.0917C3.32225 8.06372 2.85059 6.07289 2.85059 4.11923C2.85059 3.75739 2.972 3.45456 3.21484 3.21073C3.4575 2.96673 3.75892 2.84473 4.11909 2.84473L7.61909 2.84473C7.92025 2.84473 8.17309 2.94106 8.37759 3.13373C8.58209 3.32623 8.72367 3.57939 8.80234 3.89323L9.47559 6.93848C9.51809 7.22564 9.5125 7.48198 9.45884 7.70748C9.40517 7.93314 9.29384 8.12648 9.12484 8.28748L6.60659 10.771C7.02392 11.4723 7.46634 12.1277 7.93384 12.7372C8.40117 13.3466 8.9205 13.9266 9.49184 14.4775C10.0927 15.0988 10.7198 15.661 11.3731 16.164C12.0266 16.6671 12.7084 17.1067 13.4186 17.4827L15.8233 15.015C16.018 14.8036 16.2408 14.6606 16.4918 14.586C16.743 14.5115 16.9963 14.4988 17.2518 14.548L20.1071 15.1802C20.4209 15.2667 20.6741 15.4263 20.8666 15.659C21.0593 15.8916 21.1556 16.1621 21.1556 16.4702L21.1556 19.8812C21.1556 20.2436 21.0335 20.5456 20.7893 20.7872C20.5452 21.0289 20.2444 21.1497 19.8871 21.1497ZM5.75509 9.22848L7.77409 7.22023L7.20509 4.55398L4.56584 4.55398C4.59517 5.23014 4.70159 5.94564 4.88509 6.70048C5.06859 7.45531 5.35859 8.29798 5.75509 9.22848ZM14.9978 18.3275C15.6613 18.6361 16.3841 18.8885 17.1661 19.0845C17.9483 19.2805 18.7083 19.3971 19.4463 19.4345L19.4463 16.7845L16.9608 16.2702L14.9978 18.3275Z"
        fill="rgb(219,8,18)" fill-rule="nonzero" />
    <path id="Vector"
        d="M6.60659 10.771L9.12484 8.28748C9.29384 8.12648 9.40517 7.93314 9.45884 7.70748C9.5125 7.48198 9.51809 7.22564 9.47559 6.93848L8.80234 3.89323C8.72367 3.57939 8.58209 3.32623 8.37759 3.13373C8.17309 2.94106 7.92025 2.84473 7.61909 2.84473L4.11909 2.84473C3.75892 2.84473 3.4575 2.96673 3.21484 3.21073C2.972 3.45456 2.85059 3.75739 2.85059 4.11923C2.85059 6.07289 3.32225 8.06373 4.26559 10.0917C5.20892 12.1199 6.54584 13.9992 8.27634 15.7297C10.007 17.4604 11.8854 18.7964 13.9116 19.7377C15.9376 20.6791 17.9294 21.1497 19.8871 21.1497C20.2444 21.1497 20.5452 21.0289 20.7893 20.7872C21.0335 20.5456 21.1556 20.2436 21.1556 19.8812L21.1556 16.4702C21.1556 16.1621 21.0593 15.8916 20.8666 15.659C20.6741 15.4263 20.4209 15.2667 20.1071 15.1802L17.2518 14.548C16.9963 14.4988 16.743 14.5115 16.4918 14.586C16.2408 14.6606 16.018 14.8036 15.8233 15.015L13.4186 17.4827C12.7084 17.1067 12.0266 16.6671 11.3731 16.164C10.7198 15.661 10.0927 15.0988 9.49184 14.4775C8.9205 13.9266 8.40117 13.3466 7.93384 12.7372C7.46634 12.1277 7.02392 11.4723 6.60659 10.771ZM7.77409 7.22023L6.52125 8.46639L5.75509 9.22848C5.60621 8.87909 5.47235 8.54209 5.3535 8.21747C5.15582 7.67755 4.99969 7.17188 4.88509 6.70048C4.78959 6.30766 4.71497 5.92549 4.66123 5.55398C4.6117 5.2116 4.5799 4.87826 4.56584 4.55398L7.20509 4.55398L7.77409 7.22023ZM18.4463 19.3373C18.0264 19.2774 17.5996 19.1931 17.1661 19.0845C16.7591 18.9825 16.3682 18.8652 15.9934 18.7327C15.6479 18.6106 15.316 18.4755 14.9978 18.3275L16.9608 16.2702L19.4463 16.7845L19.4463 19.4345C19.1174 19.4178 18.7841 19.3854 18.4463 19.3373Z"
        fill="rgb(219,8,18)" fill-rule="evenodd" />
</svg>